<svg width="20" height="21" viewBox="0 0 20 21" fill="none" xmlns="http://www.w3.org/2000/svg">
<path d="M9.99413 19.1582C11.3814 19.1582 12.5625 18.6727 13.5375 17.7016C14.5125 16.7305 15 15.5513 15 14.1641C15 12.7768 14.5145 11.5957 13.5434 10.6207C12.5723 9.6457 11.3931 9.1582 10.0059 9.1582C8.61862 9.1582 7.4375 9.64375 6.4625 10.6148C5.4875 11.5859 5 12.7651 5 14.1523C5 15.5396 5.48554 16.7207 6.45663 17.6957C7.42769 18.6707 8.60686 19.1582 9.99413 19.1582ZM6.65 8.5832C7.11667 8.29987 7.61667 8.07904 8.15 7.9207C8.68333 7.76237 9.24167 7.67487 9.825 7.6582L7.075 2.1582H3.425L6.65 8.5832ZM13.35 8.5832L16.575 2.1582H12.925L10.85 6.3332L11.6 7.8332C11.9167 7.91654 12.2208 8.0207 12.5125 8.1457C12.8042 8.2707 13.0833 8.41654 13.35 8.5832ZM4.825 18.0832C4.40833 17.5332 4.08333 16.929 3.85 16.2707C3.61667 15.6124 3.5 14.9082 3.5 14.1582C3.5 13.4082 3.61667 12.704 3.85 12.0457C4.08333 11.3874 4.40833 10.7832 4.825 10.2332C3.875 10.3999 3.08333 10.8457 2.45 11.5707C1.81667 12.2957 1.5 13.1582 1.5 14.1582C1.5 15.1582 1.81667 16.0207 2.45 16.7457C3.08333 17.4707 3.875 17.9165 4.825 18.0832ZM15.175 18.0832C16.125 17.9165 16.9167 17.4707 17.55 16.7457C18.1833 16.0207 18.5 15.1582 18.5 14.1582C18.5 13.1582 18.1833 12.2957 17.55 11.5707C16.9167 10.8457 16.125 10.3999 15.175 10.2332C15.5917 10.7832 15.9167 11.3874 16.15 12.0457C16.3833 12.704 16.5 13.4082 16.5 14.1582C16.5 14.9082 16.3833 15.6124 16.15 16.2707C15.9167 16.929 15.5917 17.5332 15.175 18.0832ZM10 20.6582C9.33333 20.6582 8.69583 20.5624 8.0875 20.3707C7.47917 20.179 6.91667 19.9165 6.4 19.5832C6.25 19.6165 6.1 19.6374 5.95 19.6457C5.8 19.654 5.64167 19.6582 5.475 19.6582C3.95833 19.6582 2.66667 19.1249 1.6 18.0582C0.533333 16.9915 0 15.6999 0 14.1832C0 12.7332 0.483333 11.4915 1.45 10.4582C2.41667 9.42487 3.60833 8.84987 5.025 8.7332L1 0.658203H8L10 4.6582L12 0.658203H19L15 8.6832C16.4167 8.81654 17.6042 9.39987 18.5625 10.4332C19.5208 11.4665 20 12.7082 20 14.1582C20 15.6915 19.4667 16.9915 18.4 18.0582C17.3333 19.1249 16.0333 19.6582 14.5 19.6582C14.35 19.6582 14.1958 19.654 14.0375 19.6457C13.8792 19.6374 13.725 19.6165 13.575 19.5832C13.0583 19.9165 12.5 20.179 11.9 20.3707C11.3 20.5624 10.6667 20.6582 10 20.6582ZM8.15 16.9082L8.85 14.6332L7 13.3082H9.275L10 10.9082L10.725 13.3082H13L11.15 14.6332L11.85 16.9082L10 15.5082L8.15 16.9082Z" fill="#002DF5"/>
</svg>
