<svg width="16" height="21" viewBox="0 0 16 21" fill="none" xmlns="http://www.w3.org/2000/svg">
<path d="M6.85 16.2832L12.575 10.5582L11.6 9.5832L6.85 14.3332L4.275 11.7582L3.3 12.7332L6.85 16.2832ZM1.5 20.6582C1.1 20.6582 0.75 20.5082 0.45 20.2082C0.15 19.9082 0 19.5582 0 19.1582V2.1582C0 1.7582 0.15 1.4082 0.45 1.1082C0.75 0.808203 1.1 0.658203 1.5 0.658203H10.525L16 6.1332V19.1582C16 19.5582 15.85 19.9082 15.55 20.2082C15.25 20.5082 14.9 20.6582 14.5 20.6582H1.5ZM9.775 6.8082V2.1582H1.5V19.1582H14.5V6.8082H9.775Z" fill="#002DF5"/>
</svg>
