<svg width="20" height="17" viewBox="0 0 20 17" fill="none" xmlns="http://www.w3.org/2000/svg">
<path d="M8.175 12.5331C8.55833 12.9164 9.1125 13.0956 9.8375 13.0706C10.5625 13.0456 11.0917 12.7748 11.425 12.2581L16.825 3.78311L8.45 9.2581C7.95 9.59144 7.68333 10.1248 7.65 10.8581C7.61667 11.5914 7.79167 12.1498 8.175 12.5331ZM9.95 0.683105C10.9 0.683105 11.8917 0.837272 12.925 1.14561C13.9583 1.45394 14.95 1.98311 15.9 2.73311L14.6 3.65811C13.85 3.15811 13.0458 2.78727 12.1875 2.54561C11.3292 2.30394 10.5832 2.18311 9.94945 2.18311C7.60825 2.18311 5.61471 3.01823 3.96883 4.68848C2.32294 6.35875 1.5 8.38181 1.5 10.7577C1.5 11.508 1.60417 12.2664 1.8125 13.0331C2.02083 13.7998 2.31667 14.5081 2.7 15.1581H17.175C17.5417 14.5581 17.8333 13.8581 18.05 13.0581C18.2667 12.2581 18.375 11.4748 18.375 10.7081C18.375 10.0081 18.2708 9.25394 18.0625 8.44561C17.8542 7.63727 17.4833 6.89144 16.95 6.20811L17.925 4.90811C18.5583 5.84144 19.0333 6.77894 19.35 7.72061C19.6667 8.66227 19.8417 9.6081 19.875 10.5581C19.9083 11.5581 19.8083 12.4998 19.575 13.3831C19.3417 14.2664 19 15.0831 18.55 15.8331C18.35 16.2164 18.1375 16.4498 17.9125 16.5331C17.6875 16.6164 17.4083 16.6581 17.075 16.6581H2.8C2.51667 16.6581 2.2375 16.5873 1.9625 16.4456C1.6875 16.3039 1.48333 16.0998 1.35 15.8331C0.916667 15.0331 0.583333 14.2206 0.35 13.3956C0.116667 12.5706 0 11.6914 0 10.7581C0 9.37477 0.2625 8.07061 0.7875 6.84561C1.3125 5.62061 2.025 4.55394 2.925 3.64561C3.825 2.73727 4.88067 2.01644 6.092 1.48311C7.30333 0.949772 8.58933 0.683105 9.95 0.683105Z" fill="#002DF5"/>
</svg>
