<svg width="1440" height="409" viewBox="0 0 1440 409" fill="none" xmlns="http://www.w3.org/2000/svg">
<path d="M-103 6.23256C141.454 80.944 273.224 179.479 349.22 260.088C412.57 327.293 411.446 354.783 478.715 404.923C624.694 513.724 904.334 588.752 1039.86 495.253C1106.63 449.195 1081.93 390.827 1113.86 280.332C1142.59 180.935 1216.87 44.2295 1424.24 -104.342" stroke="#002DF5" stroke-opacity="0.3" stroke-width="1.20346" stroke-miterlimit="10"/>
<path d="M-102.512 30.3365C135.261 94.5451 265.712 187.243 341.668 262.683C405.579 326.177 410.775 351.567 482.227 400.845C632.116 504.219 894.734 576.189 1030.45 488.947C1100.36 444.014 1084.46 386.645 1121.87 276.475C1154.82 179.482 1230.61 45.1138 1434.41 -102.125" stroke="#002DF5" stroke-opacity="0.3" stroke-width="1.20346" stroke-miterlimit="10"/>
<path d="M-102.021 54.4389C129.064 108.148 258.3 195.032 334.132 265.279C398.735 325.123 409.991 348.355 485.754 396.768C639.222 494.836 885.554 563.794 1021.07 482.647C1094.27 438.806 1086.89 382.522 1129.91 272.622C1166.93 178.057 1244.37 46.01 1444.61 -99.8896" stroke="#002DF5" stroke-opacity="0.3" stroke-width="1.20346" stroke-miterlimit="10"/>
<path d="M-101.533 78.542C122.866 121.752 251.013 202.842 326.594 267.892C391.972 324.129 409.078 345.165 489.297 392.686C646.04 485.584 876.768 551.583 1011.69 476.341C1088.34 433.595 1089.21 378.443 1137.95 268.764C1178.88 176.65 1258.14 46.9035 1454.79 -97.667" stroke="#002DF5" stroke-opacity="0.3" stroke-width="1.20346" stroke-miterlimit="10"/>
<path d="M-101.042 102.644C116.693 135.347 243.879 210.653 319.059 270.47C385.328 323.191 408.093 342.006 492.798 388.609C652.542 476.471 868.303 539.574 1002.27 470.036C1082.53 428.376 1091.36 374.392 1145.96 264.907C1190.67 175.251 1271.88 47.7956 1464.95 -95.4258" stroke="#002DF5" stroke-opacity="0.3" stroke-width="1.20346" stroke-miterlimit="10"/>
<path d="M-100.554 126.745C110.478 148.95 236.905 218.468 311.521 273.066C378.821 322.31 406.946 338.894 496.323 384.529C658.827 467.509 860.184 527.77 992.87 463.735C1076.88 423.187 1093.36 370.362 1153.98 261.05C1202.32 173.849 1285.64 48.6912 1475.13 -93.2178" stroke="#002DF5" stroke-opacity="0.3" stroke-width="1.20346" stroke-miterlimit="10"/>
<path d="M-100.063 150.847C104.282 162.535 230.127 226.249 303.985 275.661C372.466 321.475 405.726 335.835 499.846 380.451C664.911 458.692 852.357 516.179 983.474 457.43C1071.37 418.044 1095.28 366.332 1162.01 257.197C1213.84 172.433 1299.42 49.5862 1485.31 -90.9902" stroke="#002DF5" stroke-opacity="0.3" stroke-width="1.20346" stroke-miterlimit="10"/>
<path d="M-99.5586 174.952C98.1001 176.151 223.576 233.994 296.464 278.256C366.302 320.668 404.45 332.844 503.383 376.374C670.828 450.027 844.809 504.798 974.093 451.126C1066.02 412.965 1097.03 362.295 1170.05 253.34C1225.21 171.001 1313.15 50.4917 1495.49 -88.7656" stroke="#002DF5" stroke-opacity="0.3" stroke-width="1.20346" stroke-miterlimit="10"/>
<path d="M-99.0879 199.052C91.8845 189.751 217.219 241.664 288.909 280.853C360.312 319.871 403.03 329.943 506.891 372.292C676.583 441.506 837.461 493.629 964.677 444.822C1060.76 407.968 1098.61 358.222 1178.06 249.481C1236.47 169.537 1326.91 51.3719 1505.69 -86.543" stroke="#002DF5" stroke-opacity="0.3" stroke-width="1.20346" stroke-miterlimit="10"/>
<path d="M-98.5977 223.144C85.6928 203.345 211.115 249.226 281.373 283.439C354.508 319.052 401.577 327.08 510.413 368.206C682.213 433.119 830.299 482.657 955.281 438.509C1055.62 403.067 1100.07 354.103 1186.08 245.616C1247.61 168.029 1340.67 52.2586 1515.84 -84.3271" stroke="#002DF5" stroke-opacity="0.3" stroke-width="1.20346" stroke-miterlimit="10"/>
<path d="M-98.1074 247.259C79.5188 216.957 205.25 256.68 273.841 286.044C348.938 318.197 400.07 324.339 513.94 364.135C687.767 424.888 823.305 471.908 945.885 432.218C1050.6 398.312 1101.38 349.946 1194.11 241.769C1258.64 166.5 1354.43 53.164 1526.03 -82.0859" stroke="#002DF5" stroke-opacity="0.3" stroke-width="1.20346" stroke-miterlimit="10"/>
<path d="M-97.6182 271.36C73.2997 230.554 199.608 263.963 266.304 288.638C343.578 317.231 398.532 321.679 517.462 360.057C693.255 416.775 816.438 461.337 936.488 425.912C1045.67 393.696 1102.55 345.71 1202.14 237.914C1269.57 164.913 1368.18 54.0546 1536.2 -79.8662" stroke="#002DF5" stroke-opacity="0.3" stroke-width="1.20346" stroke-miterlimit="10"/>
<path d="M-97.1299 295.463C67.1016 244.155 194.159 271.058 258.766 291.235C338.42 316.111 396.918 319.11 520.987 355.978C698.697 408.785 809.658 450.953 927.094 419.605C1040.81 389.249 1103.6 341.398 1210.16 234.056C1280.43 163.275 1381.94 54.9482 1546.38 -77.6436" stroke="#002DF5" stroke-opacity="0.3" stroke-width="1.20346" stroke-miterlimit="10"/>
<path d="M-96.6396 319.565C60.91 257.758 188.876 277.948 251.23 293.831C333.445 314.773 395.297 316.64 524.501 351.898C704.102 400.909 802.934 440.729 917.69 413.305C1036.05 385.003 1104.52 336.994 1218.18 230.2C1291.22 161.583 1395.69 55.8344 1556.56 -75.4082" stroke="#002DF5" stroke-opacity="0.3" stroke-width="1.20346" stroke-miterlimit="10"/>
<path d="M-96.1514 343.666C54.7119 271.356 183.696 284.614 243.674 296.426C328.582 313.143 393.639 314.262 528.017 347.821C709.5 393.141 796.233 430.701 908.283 407C1031.32 380.975 1105.33 332.492 1226.2 226.333C1301.93 159.823 1409.44 56.726 1566.73 -73.2041" stroke="#002DF5" stroke-opacity="0.3" stroke-width="1.20346" stroke-miterlimit="10"/>
<path d="M-95.6631 367.771C48.5359 284.958 178.56 291.052 236.154 299.02C323.821 311.149 392.002 311.981 531.556 343.74C714.912 385.483 789.559 420.812 898.903 400.698C1026.66 377.192 1106.06 327.897 1234.24 222.489C1312.63 158.023 1423.21 57.6309 1576.92 -70.9668" stroke="#002DF5" stroke-opacity="0.3" stroke-width="1.20346" stroke-miterlimit="10"/>
<path d="M-95.1494 391.872C42.3412 298.559 174.023 309.346 228.642 301.618C317.979 288.975 390.374 309.797 535.106 339.662C720.358 377.896 782.844 411.071 889.508 394.393C1022 373.688 1106.69 323.165 1242.27 218.632C1323.29 156.163 1436.97 58.5257 1587.1 -68.7295" stroke="#002DF5" stroke-opacity="0.3" stroke-width="1.20346" stroke-miterlimit="10"/>
<path d="M-94.6816 415.973C36.1271 312.161 169.378 313.253 221.083 304.213C311.708 288.371 388.7 307.703 538.606 335.584C725.819 370.416 776.048 401.473 880.112 388.088C1017.32 370.462 1107.25 318.333 1250.3 214.768C1333.92 154.233 1450.72 59.4107 1597.28 -66.5254" stroke="#002DF5" stroke-opacity="0.3" stroke-width="1.20346" stroke-miterlimit="10"/>
<path d="M-94.1934 440.078C29.929 325.76 164.123 316.777 213.545 306.808C305.801 288.204 387.055 305.703 542.132 331.521C731.31 362.999 769.167 391.986 870.714 381.804C1012.61 367.574 1107.74 313.397 1258.32 210.935C1344.53 152.276 1464.48 60.3229 1607.46 -64.2773" stroke="#002DF5" stroke-opacity="0.3" stroke-width="1.20346" stroke-miterlimit="10"/>
<path d="M-93.7061 464.18C23.73 339.363 156.668 314.904 206.011 309.404C303.203 298.594 385.435 303.787 545.656 327.437C736.857 355.646 762.166 382.596 861.319 375.493C1007.82 364.987 1108.18 308.302 1266.36 207.061C1355.15 150.223 1478.25 61.2085 1617.64 -62.0693" stroke="#002DF5" stroke-opacity="0.3" stroke-width="1.20346" stroke-miterlimit="10"/>
<path d="M-93.2148 488.28C17.5349 352.964 150.525 320.574 198.471 312.001C297.047 294.379 383.828 301.956 549.175 323.356C742.444 348.358 755.01 373.308 851.92 369.187C1002.93 362.768 1108.59 303.132 1274.37 203.214C1365.76 148.135 1492 62.1094 1627.82 -59.8359" stroke="#002DF5" stroke-opacity="0.3" stroke-width="1.20346" stroke-miterlimit="10"/>
<path d="M-92.7275 512.384C11.3403 366.565 143.96 326.25 190.932 314.595C290.324 289.923 382.248 300.205 552.699 319.271C748.092 341.124 747.682 364.094 842.525 362.878C997.893 360.874 1108.96 297.821 1282.4 199.352C1376.39 146.001 1505.75 62.9938 1638 -57.6191" stroke="#002DF5" stroke-opacity="0.3" stroke-width="1.20346" stroke-miterlimit="10"/>
</svg>
