<svg width="18" height="15" viewBox="0 0 18 15" fill="none" xmlns="http://www.w3.org/2000/svg">
<path d="M11.8001 3.4582C11.8001 5.0046 10.5465 6.2582 9.0001 6.2582C7.4537 6.2582 6.2001 5.0046 6.2001 3.4582C6.2001 1.91181 7.4537 0.658203 9.0001 0.658203C10.5465 0.658203 11.8001 1.91181 11.8001 3.4582Z" fill="#002DF5"/>
<path d="M16.4668 5.32487C16.4668 6.3558 15.631 7.19154 14.6001 7.19154C13.5692 7.19154 12.7334 6.3558 12.7334 5.32487C12.7334 4.29394 13.5692 3.4582 14.6001 3.4582C15.631 3.4582 16.4668 4.29394 16.4668 5.32487Z" fill="#002DF5"/>
<path d="M12.7334 11.8582C12.7334 9.79634 11.062 8.12487 9.0001 8.12487C6.93823 8.12487 5.26676 9.79634 5.26676 11.8582V14.6582H12.7334V11.8582Z" fill="#002DF5"/>
<path d="M5.26676 5.32487C5.26676 6.3558 4.43103 7.19154 3.4001 7.19154C2.36917 7.19154 1.53343 6.3558 1.53343 5.32487C1.53343 4.29394 2.36917 3.4582 3.4001 3.4582C4.43103 3.4582 5.26676 4.29394 5.26676 5.32487Z" fill="#002DF5"/>
<path d="M14.6001 14.6582V11.8582C14.6001 10.8743 14.3464 9.94973 13.9008 9.14624C14.1243 9.08877 14.3586 9.0582 14.6001 9.0582C16.1465 9.0582 17.4001 10.3118 17.4001 11.8582V14.6582H14.6001Z" fill="#002DF5"/>
<path d="M4.09941 9.14624C3.65382 9.94973 3.4001 10.8743 3.4001 11.8582V14.6582H0.600098V11.8582C0.600098 10.3118 1.8537 9.0582 3.4001 9.0582C3.64156 9.0582 3.87588 9.08877 4.09941 9.14624Z" fill="#002DF5"/>
</svg>
