<svg width="45" height="43" viewBox="0 0 45 43" fill="none" xmlns="http://www.w3.org/2000/svg">
<path d="M17.8604 16.5747C15.6035 16.5747 13.6806 15.7791 12.0917 14.188C10.5028 12.5969 9.70833 10.6841 9.70833 8.44971C9.70833 6.17471 10.5039 4.25179 12.095 2.68096C13.6862 1.11012 15.599 0.324707 17.8333 0.324707C20.1083 0.324707 22.0312 1.11012 23.6021 2.68096C25.1729 4.25179 25.9583 6.16568 25.9583 8.42262C25.9583 10.6796 25.1729 12.6025 23.6021 14.1914C22.0312 15.7803 20.1174 16.5747 17.8604 16.5747ZM17.8333 13.3247C19.2056 13.3247 20.3611 12.8474 21.3 11.8926C22.2389 10.938 22.7083 9.79033 22.7083 8.44971C22.7083 7.07748 22.2389 5.92193 21.3 4.98304C20.3611 4.04415 19.2146 3.57471 17.8604 3.57471C16.5063 3.57471 15.3507 4.04415 14.3938 4.98304C13.4368 5.92193 12.9583 7.06846 12.9583 8.42262C12.9583 9.77679 13.4357 10.9323 14.3904 11.8893C15.3451 12.8462 16.4927 13.3247 17.8333 13.3247ZM42.6417 42.5747L35.0583 34.9914C34.2278 35.6053 33.3701 36.0296 32.4854 36.2643C31.6007 36.499 30.6967 36.6164 29.7736 36.6164C27.2091 36.6164 25.0294 35.7205 23.2343 33.9287C21.4392 32.137 20.5417 29.9613 20.5417 27.4016C20.5417 24.842 21.4375 22.6685 23.2293 20.881C25.021 19.0935 27.1967 18.1997 29.7564 18.1997C32.316 18.1997 34.4896 19.0972 36.2771 20.8923C38.0646 22.6874 38.9583 24.8672 38.9583 27.4316C38.9583 28.3548 38.841 29.2587 38.6063 30.1435C38.3715 31.0282 37.9472 31.8858 37.3333 32.7164L44.9167 40.2997L42.6417 42.5747ZM29.75 33.3664C31.4472 33.3664 32.8646 32.7976 34.0021 31.6601C35.1396 30.5226 35.7083 29.1053 35.7083 27.408C35.7083 25.7108 35.1396 24.2935 34.0021 23.156C32.8646 22.0185 31.4472 21.4497 29.75 21.4497C28.0528 21.4497 26.6354 22.0185 25.4979 23.156C24.3604 24.2935 23.7917 25.7108 23.7917 27.408C23.7917 29.1053 24.3604 30.5226 25.4979 31.6601C26.6354 32.7976 28.0528 33.3664 29.75 33.3664ZM0.5 34.9914V29.8997C0.5 28.5636 0.815972 27.4261 1.44792 26.4872C2.07986 25.5483 2.99167 24.7719 4.18333 24.158C5.88056 23.3275 8.09236 22.5421 10.8188 21.8018C13.5451 21.0615 16.3167 20.7817 19.1333 20.9622C18.8444 21.4317 18.5736 21.9462 18.3208 22.506C18.0681 23.0657 17.8694 23.6164 17.725 24.158C14.9083 24.1219 12.4528 24.456 10.3583 25.1601C8.26389 25.8643 6.63889 26.5053 5.48333 27.083C4.97778 27.3719 4.5625 27.7601 4.2375 28.2476C3.9125 28.7351 3.75 29.2858 3.75 29.8997V31.7414H17.725C18.1222 32.3553 18.4833 32.924 18.8083 33.4476C19.1333 33.9712 19.4944 34.4858 19.8917 34.9914H0.5Z" fill="#000425"/>
</svg>
