<svg width="25" height="24" viewBox="0 0 25 24" fill="none" xmlns="http://www.w3.org/2000/svg">
<path d="M17.3261 0.0917969C23.7319 0.0917969 24.2333 0.593131 24.2333 6.999V16.6513C24.2333 23.0571 23.7319 23.5585 17.3261 23.5585H7.6738C1.26794 23.5585 0.766602 23.0571 0.766602 16.6513V6.999C0.766602 0.593131 1.26794 0.0917969 7.6738 0.0917969H17.3261ZM9.14687 16.1723C11.5479 16.1723 13.4941 14.2262 13.4941 11.8251C13.4941 9.42406 11.5479 7.47793 9.14687 7.47793C6.7458 7.47793 4.79967 9.42406 4.79967 11.8251C4.79967 14.2262 6.74634 16.1723 9.14687 16.1723ZM16.0802 15.9622C17.2685 15.9622 18.2317 14.1099 18.2317 11.8251C18.2317 9.54033 17.2685 7.68806 16.0802 7.68806C14.8919 7.68806 13.9287 9.54033 13.9287 11.8251C13.9287 14.1099 14.8919 15.9622 16.0802 15.9622ZM19.4226 15.5201C19.8359 15.5201 20.1709 13.8657 20.1709 11.8251C20.1709 9.7846 19.8359 8.1302 19.4226 8.1302C19.0093 8.1302 18.6743 9.7846 18.6743 11.8251C18.6743 13.8657 19.0093 15.5201 19.4226 15.5201Z" fill="#A3A3A3"/>
</svg>
