<svg width="28" height="28" viewBox="0 0 28 28" fill="none" xmlns="http://www.w3.org/2000/svg">
<path d="M4.23333 11.4581L7.76667 12.9581C8.16667 12.1581 8.59444 11.3692 9.05 10.5915C9.50556 9.81369 9.98889 9.06924 10.5 8.35813L7.86667 7.8248L4.23333 11.4581ZM9.36667 14.1581L13.8 18.5915C15.0667 18.0137 16.2556 17.3581 17.3667 16.6248C18.4778 15.8915 19.3778 15.1804 20.0667 14.4915C21.8667 12.6915 23.1889 10.847 24.0333 8.95813C24.8778 7.06924 25.3333 4.93591 25.4 2.55813C23.0222 2.6248 20.8889 3.08036 19 3.9248C17.1111 4.76924 15.2667 6.09147 13.4667 7.89147C12.7778 8.58036 12.0667 9.48035 11.3333 10.5915C10.6 11.7026 9.94444 12.8915 9.36667 14.1581ZM17 10.9581C16.5556 10.5137 16.3333 9.96369 16.3333 9.30813C16.3333 8.65258 16.5556 8.10258 17 7.65813C17.4444 7.21369 17.9944 6.99147 18.65 6.99147C19.3056 6.99147 19.8556 7.21369 20.3 7.65813C20.7444 8.10258 20.9667 8.65258 20.9667 9.30813C20.9667 9.96369 20.7444 10.5137 20.3 10.9581C19.8556 11.4026 19.3056 11.6248 18.65 11.6248C17.9944 11.6248 17.4444 11.4026 17 10.9581ZM16.5 23.7248L20.1333 20.0915L19.6 17.4581C18.8889 17.9692 18.1444 18.4526 17.3667 18.9081C16.5889 19.3637 15.8 19.7915 15 20.1915L16.5 23.7248ZM27.3667 0.591468C27.5667 3.61369 27.1889 6.36924 26.2333 8.85813C25.2778 11.347 23.7 13.6915 21.5 15.8915L21.4333 15.9581L21.3667 16.0248L22.1 19.6915C22.1667 20.0248 22.15 20.347 22.05 20.6581C21.95 20.9692 21.7778 21.247 21.5333 21.4915L15.8333 27.2248L13 20.6248L7.33333 14.9581L0.733333 12.1248L6.46667 6.4248C6.71111 6.18036 6.98889 6.00813 7.3 5.90813C7.61111 5.80813 7.93333 5.79147 8.26667 5.85813L11.9333 6.59147C11.9556 6.56924 11.9778 6.55258 12 6.54147C12.0222 6.53036 12.0444 6.51369 12.0667 6.49147C14.2667 4.29147 16.6111 2.70813 19.1 1.74147C21.5889 0.774801 24.3444 0.391468 27.3667 0.591468ZM2.96667 18.9915C3.74444 18.2137 4.69444 17.8192 5.81667 17.8081C6.93889 17.797 7.88889 18.1804 8.66667 18.9581C9.44444 19.7359 9.82778 20.6859 9.81667 21.8081C9.80556 22.9304 9.41111 23.8804 8.63333 24.6581C8.05556 25.2359 7.16111 25.7137 5.95 26.0915C4.73889 26.4692 2.92222 26.8248 0.5 27.1581C0.833333 24.7359 1.18333 22.9137 1.55 21.6915C1.91667 20.4692 2.38889 19.5692 2.96667 18.9915ZM4.36667 20.4248C4.05556 20.7581 3.77778 21.2804 3.53333 21.9915C3.28889 22.7026 3.07778 23.6137 2.9 24.7248C4.01111 24.547 4.92222 24.3359 5.63333 24.0915C6.34444 23.847 6.86667 23.5692 7.2 23.2581C7.62222 22.8804 7.83889 22.4081 7.85 21.8415C7.86111 21.2748 7.66667 20.7804 7.26667 20.3581C6.84444 19.9581 6.35 19.7637 5.78333 19.7748C5.21667 19.7859 4.74444 20.0026 4.36667 20.4248Z" fill="white"/>
</svg>
