<svg width="25" height="25" viewBox="0 0 25 25" fill="none" xmlns="http://www.w3.org/2000/svg">
<path d="M22.7234 0.825195H2.27187C1.29219 0.825195 0.5 1.59863 0.5 2.55488V23.0908C0.5 24.0471 1.29219 24.8252 2.27187 24.8252H22.7234C23.7031 24.8252 24.5 24.0471 24.5 23.0955V2.55488C24.5 1.59863 23.7031 0.825195 22.7234 0.825195ZM7.62031 21.2768H4.05781V9.82051H7.62031V21.2768ZM5.83906 8.25957C4.69531 8.25957 3.77188 7.33613 3.77188 6.19707C3.77188 5.05801 4.69531 4.13457 5.83906 4.13457C6.97813 4.13457 7.90156 5.05801 7.90156 6.19707C7.90156 7.33145 6.97813 8.25957 5.83906 8.25957ZM20.9516 21.2768H17.3937V15.708C17.3937 14.3814 17.3703 12.6705 15.5422 12.6705C13.6906 12.6705 13.4094 14.1189 13.4094 15.6143V21.2768H9.85625V9.82051H13.2687V11.3861H13.3156C13.7891 10.4861 14.9516 9.53457 16.6813 9.53457C20.2859 9.53457 20.9516 11.9064 20.9516 14.9908V21.2768Z" fill="#A3A3A3"/>
</svg>
