<svg width="45" height="44" viewBox="0 0 45 44" fill="none" xmlns="http://www.w3.org/2000/svg">
<path d="M6.6299 17.8122L12.3716 20.2497C13.0216 18.9497 13.7167 17.6678 14.457 16.4039C15.1973 15.14 15.9827 13.9303 16.8132 12.7747L12.5341 11.9081L6.6299 17.8122ZM14.9716 22.1997L22.1757 29.4039C24.2341 28.465 26.166 27.3997 27.9716 26.208C29.7771 25.0164 31.2396 23.8608 32.3591 22.7414C35.2841 19.8164 37.4327 16.8192 38.8049 13.7497C40.1771 10.6803 40.9174 7.21361 41.0257 3.34972C37.1618 3.45805 33.6952 4.19833 30.6257 5.57055C27.5563 6.94277 24.5591 9.09138 21.6341 12.0164C20.5146 13.1358 19.3591 14.5983 18.1674 16.4039C16.9757 18.2094 15.9105 20.1414 14.9716 22.1997ZM27.3757 16.9997C26.6535 16.2775 26.2924 15.3837 26.2924 14.3185C26.2924 13.2532 26.6535 12.3594 27.3757 11.6372C28.098 10.915 28.9917 10.5539 30.057 10.5539C31.1223 10.5539 32.016 10.915 32.7382 11.6372C33.4605 12.3594 33.8216 13.2532 33.8216 14.3185C33.8216 15.3837 33.4605 16.2775 32.7382 16.9997C32.016 17.7219 31.1223 18.083 30.057 18.083C28.9917 18.083 28.098 17.7219 27.3757 16.9997ZM26.5632 37.7455L32.4674 31.8414L31.6007 27.5622C30.4452 28.3928 29.2355 29.1782 27.9716 29.9185C26.7077 30.6587 25.4257 31.3539 24.1257 32.0039L26.5632 37.7455ZM44.2216 0.153884C44.5466 5.06499 43.9327 9.54277 42.3799 13.5872C40.8271 17.6317 38.2632 21.4414 34.6882 25.0164L34.5799 25.1247L34.4716 25.233L35.6632 31.1914C35.7716 31.733 35.7445 32.2567 35.582 32.7622C35.4195 33.2678 35.1396 33.7192 34.7424 34.1164L25.4799 43.433L20.8757 32.708L11.6674 23.4997L0.942399 18.8955L10.2591 9.63305C10.6563 9.23583 11.1077 8.95597 11.6132 8.79347C12.1188 8.63097 12.6424 8.60388 13.1841 8.71222L19.1424 9.90388C19.1785 9.86777 19.2146 9.84069 19.2507 9.82263C19.2868 9.80458 19.323 9.77749 19.3591 9.74138C22.9341 6.16638 26.7438 3.59347 30.7882 2.02263C34.8327 0.451801 39.3105 -0.171116 44.2216 0.153884ZM4.57157 30.0539C5.83545 28.79 7.3792 28.149 9.20282 28.131C11.0264 28.1129 12.5702 28.7358 13.8341 29.9997C15.098 31.2636 15.7209 32.8074 15.7028 34.631C15.6848 36.4546 15.0438 37.9983 13.7799 39.2622C12.841 40.2011 11.3875 40.9775 9.41948 41.5914C7.45143 42.2053 4.49934 42.783 0.563232 43.3247C1.1049 39.3886 1.67365 36.4275 2.26948 34.4414C2.86532 32.4553 3.63268 30.9928 4.57157 30.0539ZM6.84657 32.383C6.34101 32.9247 5.88962 33.7733 5.4924 34.9289C5.09518 36.0844 4.75212 37.565 4.46323 39.3705C6.26879 39.0817 7.74934 38.7386 8.9049 38.3414C10.0605 37.9442 10.9091 37.4928 11.4507 36.9872C12.1368 36.3733 12.4889 35.606 12.507 34.6851C12.525 33.7643 12.2091 32.9608 11.5591 32.2747C10.873 31.6247 10.0695 31.3087 9.14865 31.3268C8.22782 31.3449 7.46045 31.6969 6.84657 32.383Z" fill="#000425"/>
</svg>
